<svg viewBox="0 0 200 170" xmlns="http://www.w3.org/2000/svg">
  <ellipse cx="100" cy="162" rx="70" ry="8" fill="rgba(0,0,0,0.12)"/>
  <ellipse cx="100" cy="136" rx="64" ry="12" fill="#C87828" stroke="#2A1A0E" stroke-width="3"/>
  <path d="M36,130 Q36,140 100,143 Q164,140 164,130 L158,126 L42,126 Z" fill="#D98C40" stroke="#2A1A0E" stroke-width="3" stroke-linejoin="round"/>
  <ellipse cx="100" cy="118" rx="62" ry="13" fill="#6B2E10" stroke="#2A1A0E" stroke-width="3"/>
  <path d="M50,112 Q100,106 150,112" stroke="#8B4422" stroke-width="4" fill="none" stroke-linecap="round"/>
  <path d="M33,100 L167,100 L172,91 L167,83 L33,83 L28,91 Z" fill="#FFD700" stroke="#2A1A0E" stroke-width="3.5" stroke-linejoin="round"/>
  <path d="M56,100 L52,114 L66,114 L62,100Z" fill="#FFD700" stroke="#2A1A0E" stroke-width="2"/>
  <path d="M132,100 L136,114 L150,114 L146,100Z" fill="#FFD700" stroke="#2A1A0E" stroke-width="2"/>
  <ellipse cx="100" cy="95" rx="22" ry="5" fill="rgba(255,255,255,0.25)"/>
  <path d="M18,78 Q32,60 58,72 Q80,58 100,69 Q120,58 142,72 Q168,60 182,78 Q162,88 100,84 Q38,88 18,78Z" fill="#43A047" stroke="#2A1A0E" stroke-width="3" stroke-linejoin="round"/>
  <path d="M32,70 Q62,58 95,66 Q128,58 168,70" stroke="#66BB6A" stroke-width="3" fill="none" stroke-linecap="round"/>
  <ellipse cx="100" cy="62" rx="60" ry="14" fill="#E53935" stroke="#2A1A0E" stroke-width="3"/>
  <ellipse cx="70" cy="60" rx="9" ry="4" fill="#FFCDD2" stroke="#C62828" stroke-width="1.5"/>
  <ellipse cx="100" cy="58" rx="9" ry="4" fill="#FFCDD2" stroke="#C62828" stroke-width="1.5"/>
  <ellipse cx="130" cy="60" rx="9" ry="4" fill="#FFCDD2" stroke="#C62828" stroke-width="1.5"/>
  <path d="M38,48 Q38,16 100,12 Q162,16 162,48 L155,54 L45,54 Z" fill="#E8AA5A" stroke="#2A1A0E" stroke-width="3.5" stroke-linejoin="round"/>
  <ellipse cx="100" cy="54" rx="60" ry="10" fill="#C87828" stroke="#2A1A0E" stroke-width="3"/>
  <path d="M55,36 Q80,22 138,30" stroke="rgba(255,255,255,0.45)" stroke-width="6" fill="none" stroke-linecap="round"/>
  <ellipse cx="73" cy="30" rx="10" ry="5" fill="#F5E6C8" stroke="#C49A3A" stroke-width="1.5" transform="rotate(-18 73 30)"/>
  <ellipse cx="100" cy="22" rx="10" ry="5" fill="#F5E6C8" stroke="#C49A3A" stroke-width="1.5"/>
  <ellipse cx="128" cy="28" rx="9" ry="4.5" fill="#F5E6C8" stroke="#C49A3A" stroke-width="1.5" transform="rotate(15 128 28)"/>
  <ellipse cx="86" cy="44" rx="8" ry="4" fill="#F5E6C8" stroke="#C49A3A" stroke-width="1.5"/>
  <ellipse cx="116" cy="42" rx="8" ry="4" fill="#F5E6C8" stroke="#C49A3A" stroke-width="1.5"/>
</svg>
